<?xml version="1.0" encoding="UTF-8" standalone="no"?>
<!-- Created with Inkscape (http://www.inkscape.org/) -->

<svg
   xmlns:dc="http://purl.org/dc/elements/1.1/"
   xmlns:cc="http://creativecommons.org/ns#"
   xmlns:rdf="http://www.w3.org/1999/02/22-rdf-syntax-ns#"
   xmlns:svg="http://www.w3.org/2000/svg"
   xmlns="http://www.w3.org/2000/svg"
   xmlns:sodipodi="http://sodipodi.sourceforge.net/DTD/sodipodi-0.dtd"
   xmlns:inkscape="http://www.inkscape.org/namespaces/inkscape"
   width="526.97351"
   height="79.89193"
   id="svg3099"
   version="1.1"
   inkscape:version="0.48.5 r10040"
   sodipodi:docname="draw-propagator-tadpole_and_counterterm.svg">
  <defs
     id="defs3101" />
  <sodipodi:namedview
     id="base"
     pagecolor="#ffffff"
     bordercolor="#666666"
     borderopacity="1.0"
     inkscape:pageopacity="0.0"
     inkscape:pageshadow="2"
     inkscape:zoom="0.35"
     inkscape:cx="653.94229"
     inkscape:cy="371.26726"
     inkscape:document-units="px"
     inkscape:current-layer="layer1"
     showgrid="false"
     inkscape:window-width="657"
     inkscape:window-height="750"
     inkscape:window-x="0"
     inkscape:window-y="27"
     inkscape:window-maximized="0"
     fit-margin-top="0"
     fit-margin-left="0"
     fit-margin-right="0"
     fit-margin-bottom="0" />
  <metadata
     id="metadata3104">
    <rdf:RDF>
      <cc:Work
         rdf:about="">
        <dc:format>image/svg+xml</dc:format>
        <dc:type
           rdf:resource="http://purl.org/dc/dcmitype/StillImage" />
        <dc:title></dc:title>
      </cc:Work>
    </rdf:RDF>
  </metadata>
  <g
     inkscape:label="Layer 1"
     inkscape:groupmode="layer"
     id="layer1"
     transform="translate(278.94229,-823.73752)">
    <path
       inkscape:connector-curvature="0"
       d="m -277.2925,901.30446 c -0.0673,0.84138 1.16541,0.89195 3.69815,0.15179 2.53273,-0.74016 4.92378,-1.22914 7.17315,-1.46694 2.24936,-0.23789 9.06273,-0.76507 20.44008,-1.58165 11.37736,-0.81657 23.00317,-1.82316 34.87743,-3.01976 11.8743,-1.19659 23.68227,-2.16296 35.4239,-2.89916 11.74164,-0.73628 20.96579,-1.42975 27.67243,-2.0805 6.70664,-0.65072 10.44374,-0.94422 11.21127,-0.88048 0.76755,0.0638 0.89549,0.15275 0.3838,0.26711"
       style="fill:none;stroke:#000000;stroke-width:3.2886374;stroke-linecap:round;stroke-linejoin:round;stroke-miterlimit:10;stroke-opacity:1;stroke-dasharray:none"
       id="path3026" />
    <path
       inkscape:connector-curvature="0"
       d="m -244.33127,899.48717 c 0.74032,-0.90866 0.49627,-1.40731 -0.73214,-1.49596 -1.22843,-0.0886 -2.11739,-0.28241 -2.66691,-0.58125 -0.54952,-0.29889 -2.05408,-1.77525 -4.51367,-4.42909 -2.45958,-2.65381 -4.59768,-5.23152 -6.4143,-7.73312 -1.81661,-2.50171 -3.0384,-4.42096 -3.66537,-5.75794 -0.62696,-1.33697 -1.27105,-3.16574 -1.93224,-5.48615 -0.66117,-2.32047 -1.21856,-4.8452 -1.6722,-7.57422 -0.45361,-2.72904 -0.6887,-4.77487 -0.70525,-6.13755 -0.0165,-1.36269 0.22114,-2.99354 0.71304,-4.8925 0.49189,-1.89912 1.13589,-3.70774 1.93197,-5.42603 0.79612,-1.71829 1.57392,-3.22555 2.33342,-4.52194 0.75951,-1.29638 1.56377,-2.41928 2.41281,-3.36853 0.84905,-0.9494 2.26207,-2.22199 4.2391,-3.81775 1.97702,-1.59584 3.53814,-2.71912 4.68332,-3.36998 1.1452,-0.65086 2.16907,-1.11305 3.0716,-1.38665 0.90254,-0.27359 2.27584,-0.4425 4.1199,-0.50681 1.84407,-0.0644 3.15437,-0.01 3.93089,0.16235 0.77651,0.17257 1.64703,0.47416 2.61153,0.90477 0.96451,0.4306 1.97443,1.04432 3.02977,1.8412 1.05536,0.79674 1.82774,1.60309 2.31718,2.4189 0.48943,0.81582 0.89992,1.71487 1.23148,2.69714 0.33158,0.98229 0.68812,2.41769 1.0696,4.30619 0.38152,1.88842 0.50363,3.59466 0.36635,5.11849 -0.13727,1.52388 -0.53682,3.75511 -1.19867,6.6938 -0.66184,2.93861 -1.33736,6.51016 -2.0266,10.71448 -0.68921,4.20427 -1.89338,9.22372 -3.61249,15.05845 -1.71911,5.83465 -2.92016,9.56932 -3.60315,11.20395 -0.68297,1.63464 -0.65564,2.12758 0.082,1.47877"
       style="fill:none;stroke:#000000;stroke-width:3.2886374;stroke-linecap:round;stroke-linejoin:round;stroke-miterlimit:10;stroke-opacity:1;stroke-dasharray:none"
       id="path3028" />
    <path
       inkscape:connector-curvature="0"
       d="m -177.1469,894.23716 c -0.90859,-0.0336 -1.3836,-0.15705 -1.425,-0.37021 -0.0414,-0.21325 -0.4222,-0.63675 -1.14237,-1.27056 -0.72015,-0.63389 -1.40835,-1.33657 -2.06462,-2.10797 -0.65621,-0.77148 -1.75752,-2.39028 -3.30385,-4.85641 -1.54633,-2.46612 -2.70003,-4.47304 -3.46107,-6.02074 -0.76103,-1.54777 -1.54686,-3.57262 -2.35748,-6.07452 -0.81065,-2.50199 -1.46511,-5.25353 -1.96342,-8.25455 -0.4983,-3.0011 -0.87765,-5.90714 -1.13809,-8.71811 -0.26042,-2.81105 -0.38447,-5.44365 -0.37215,-7.89788 0.0125,-2.45437 0.1938,-4.26719 0.54446,-5.43845 0.35068,-1.17142 0.78354,-2.23634 1.29863,-3.19474 0.51507,-0.95856 1.20785,-1.9104 2.0783,-2.85561 0.87046,-0.9452 1.74606,-1.72622 2.62684,-2.34299 0.88077,-0.61682 1.71602,-1.05887 2.50572,-1.32628 0.78971,-0.26742 1.68739,-0.46662 2.69299,-0.59762 1.00561,-0.13107 2.02446,-0.14526 3.05652,-0.0424 1.03209,0.10287 1.93827,0.31776 2.71854,0.6446 0.7803,0.32685 1.36155,0.63355 1.7438,0.92004 0.38225,0.28662 0.8291,0.74057 1.34058,1.36191 0.51147,0.62134 1.04598,1.64505 1.60355,3.07091 0.55755,1.42586 1.04663,3.73933 1.46722,6.94046 0.42059,3.20114 0.62166,5.3347 0.6032,6.40053 -0.0185,1.06582 -0.50259,4.73167 -1.45235,10.99739 -0.94972,6.26565 -1.55359,9.93531 -1.81157,11.00906 -0.25795,1.07361 -0.87962,2.97501 -1.86499,5.70412 -0.98538,2.72904 -2.00583,5.88909 -3.06135,9.48022 -1.05555,3.59103 -1.11371,4.5312 -0.17445,2.82046"
       style="fill:none;stroke:#000000;stroke-width:3.2886374;stroke-linecap:round;stroke-linejoin:round;stroke-miterlimit:10;stroke-opacity:1;stroke-dasharray:none"
       id="path3030" />
    <path
       inkscape:connector-curvature="0"
       d="m -89.469051,891.46079 c -1.00951,1.04321 -0.8242,1.27456 0.55596,0.69405 1.38018,-0.58057 3.97032,-1.09463 7.7704,-1.54222 3.80013,-0.44761 9.24988,-0.82908 16.34932,-1.14432 7.09947,-0.31533 12.619,-0.68386 16.55855,-1.10565 3.9396,-0.4218 11.21567,-0.83306 21.82823,-1.23383 10.6126,-0.40077 20.1935697,-1.0537 28.7428697,-1.95873 8.5493503,-0.90508 12.2043603,-1.51734 10.9650503,-1.83682"
       style="fill:none;stroke:#000000;stroke-width:3.2886374;stroke-linecap:round;stroke-linejoin:round;stroke-miterlimit:10;stroke-opacity:1;stroke-dasharray:none"
       id="path3032" />
    <path
       inkscape:connector-curvature="0"
       d="m -56.659251,888.1795 c -0.2019,-0.80773 -0.50215,-1.25824 -0.90071,-1.35151 -0.39856,-0.0934 -0.95814,-0.34255 -1.67874,-0.7476 -0.72055,-0.40513 -2.33749,-2.00539 -4.85079,-4.80088 -2.51328,-2.79549 -4.6841,-5.65467 -6.51242,-8.5775 -1.82833,-2.92297 -3.03563,-5.04494 -3.6219,-6.36589 -0.58625,-1.32102 -1.01601,-2.43728 -1.28928,-3.34892 -0.27322,-0.91164 -0.4714,-1.87446 -0.59448,-2.88856 -0.12313,-1.0141 -0.17069,-2.11388 -0.14288,-3.29925 0.0279,-1.18547 0.20834,-2.51054 0.54163,-3.97545 0.33328,-1.46493 0.95918,-2.90169 1.87768,-4.31015 0.91852,-1.40854 1.796,-2.50329 2.63249,-3.28423 0.83651,-0.78095 1.85116,-1.58074 3.04393,-2.39937 1.19275,-0.81872 2.42622,-1.44433 3.70042,-1.8769 1.27419,-0.43259 2.59365,-0.76043 3.9584,-0.98367 1.36474,-0.22323 2.73986,-0.37865 4.12538,-0.46623 1.38548,-0.0876 2.67081,-0.0697 3.85593,0.0538 1.18514,0.12337 2.19168,0.33317 3.01964,0.6295 0.828,0.29625 1.70458,0.76393 2.62976,1.40297 0.92518,0.63904 1.9873,1.52909 3.18634,2.6699 1.19904,1.14083 2.03373,2.0826 2.504,2.82525 0.47029,0.74264 0.79934,1.52268 0.98718,2.34016 0.18783,0.81749 0.32302,1.85699 0.40561,3.11867 0.0826,1.26167 -0.004,2.81967 -0.25844,4.67407 -0.2549,1.8544 -0.95429,4.13284 -2.09824,6.83533 -1.14395,2.70241 -2.40816,5.34531 -3.79267,7.92877 -1.38446,2.58331 -2.51005,5.05944 -3.37676,7.42836 -0.86669,2.36878 -1.73267,4.20673 -2.59792,5.5138 -0.86522,1.30703 -1.08675,1.68553 -0.66455,1.13548"
       style="fill:none;stroke:#000000;stroke-width:3.2886374;stroke-linecap:round;stroke-linejoin:round;stroke-miterlimit:10;stroke-opacity:1;stroke-dasharray:none"
       id="path3034" />
    <path
       inkscape:connector-curvature="0"
       d="m -1.6902513,877.32611 c -0.40379,0.0673 -0.57022,0.0717 -0.4993,0.0134 0.071,-0.0584 0.0575,-0.18271 -0.0405,-0.373 -0.098,-0.19035 -0.3193,-0.23659 -0.66391,-0.13877 -0.34463,0.0979 -1.79898,1.46148 -4.3631,4.09103 -2.56413,2.62947 -4.5552497,4.8138 -5.9732897,6.553 -1.41804,1.73908 -2.80612,3.68832 -4.16424,5.84767 -1.35813,2.15935 -2.13611,3.30001 -2.33386,3.4219 -0.1978,0.122 -0.4237,0.13755 -0.67784,0.0469 -0.2541,-0.0906 -0.51002,-0.31842 -0.76786,-0.68325"
       style="fill:none;stroke:#000000;stroke-width:3.2886374;stroke-linecap:round;stroke-linejoin:round;stroke-miterlimit:10;stroke-opacity:1;stroke-dasharray:none"
       id="path3036" />
    <path
       inkscape:connector-curvature="0"
       d="m -17.035141,875.91269 c 0.97588,-0.43762 1.33432,-0.14817 1.07529,0.86815 -0.25901,1.01631 -0.31657,1.88232 -0.17265,2.59811 0.14389,0.71564 1.0625,2.50496 2.75581,5.36782 1.69335,2.86278 3.06725,4.98337 4.1218197,6.36169 1.05453,1.37833 2.3983,2.90916 4.03126,4.59263"
       style="fill:none;stroke:#000000;stroke-width:3.2886374;stroke-linecap:round;stroke-linejoin:round;stroke-miterlimit:10;stroke-opacity:1;stroke-dasharray:none"
       id="path3038" />
    <path
       inkscape:connector-curvature="0"
       d="m 40.760579,883.43429 c 16.3815,-0.76028 27.73853,-1.55007 34.07112,-2.36954 6.33263,-0.81933 12.01031,-1.40649 17.03305,-1.76133 5.02276,-0.35492 9.986561,-0.83243 14.891431,-1.43257 4.90486,-0.60028 8.70091,-0.91811 11.38817,-0.9536 2.68726,-0.0355 4.10571,-0.004 4.25525,0.0937 0.14961,0.0979 0.093,0.0851 -0.16979,-0.0382"
       style="fill:none;stroke:#000000;stroke-width:3.2886374;stroke-linecap:round;stroke-linejoin:round;stroke-miterlimit:10;stroke-opacity:1;stroke-dasharray:none"
       id="path3040" />
    <path
       inkscape:connector-curvature="0"
       d="m 70.238929,873.99436 c 0.74031,-0.70679 0.23242,-0.32471 -1.52379,1.14624 -1.75614,1.47079 -3.5717,3.21854 -5.4467,5.2433 -1.87493,2.02476 -4.32313,5.04455 -7.34459,9.05945 -3.02139,4.01489 -4.00406,5.44452 -2.94792,4.28897"
       style="fill:none;stroke:#000000;stroke-width:3.2886374;stroke-linecap:round;stroke-linejoin:round;stroke-miterlimit:10;stroke-opacity:1;stroke-dasharray:none"
       id="path3042" />
    <path
       inkscape:connector-curvature="0"
       d="m 54.338799,873.89342 c -0.40382,-7e-5 -0.62255,0.19348 -0.6562,0.58052 -0.0336,0.38705 0.14443,0.66558 0.53421,0.83572 0.38979,0.17014 0.87055,0.53215 1.44234,1.08613 0.57179,0.55388 1.17031,1.28722 1.79561,2.19978 0.62532,0.91255 1.37342,1.8412 2.24427,2.78587 0.8709,0.94467 2.43278,2.4659 4.6856,4.56363 2.25283,2.09768 3.66133,3.32452 4.22553,3.68054 0.56423,0.35595 1.19129,0.58068 1.88114,0.67414"
       style="fill:none;stroke:#000000;stroke-width:3.2886374;stroke-linecap:round;stroke-linejoin:round;stroke-miterlimit:10;stroke-opacity:1;stroke-dasharray:none"
       id="path3044" />
    <path
       inkscape:connector-curvature="0"
       d="m 97.445799,877.17467 c -0.37014,-0.37026 -0.84125,-0.56373 -1.41335,-0.58052 -0.57205,-0.0169 -0.91632,-0.15205 -1.03279,-0.40558 -0.1165,-0.25352 -0.50811,-0.62225 -1.175,-1.10611 -0.66688,-0.48385 -1.3292,-1.07559 -1.98692,-1.77536 -0.65769,-0.69976 -1.78265,-2.11166 -3.37486,-4.23569 -1.59218,-2.12402 -2.98565,-4.20624 -4.18042,-6.24656 -1.19472,-2.04041 -1.95163,-3.45963 -2.27073,-4.25759 -0.31907,-0.79804 -0.6131,-1.80969 -0.88208,-3.03497 -0.26897,-1.22543 -0.46139,-3.06274 -0.57727,-5.5117 -0.11588,-2.44912 -0.1429,-4.18465 -0.0811,-5.20653 0.0617,-1.02189 0.25273,-2.12265 0.57296,-3.30231 0.32025,-1.17965 0.80808,-2.40371 1.46355,-3.6721 0.65548,-1.26846 1.44932,-2.4746 2.38155,-3.61848 0.93228,-1.14395 1.94978,-2.20825 3.05253,-3.1929 1.10275,-0.98465 2.2794,-1.88071 3.52996,-2.68806 1.25061,-0.80741 2.38885,-1.39435 3.41461,-1.76086 1.02585,-0.36651 2.36158,-0.66711 4.00723,-0.9018 1.645701,-0.23475 3.192601,-0.32738 4.640701,-0.27794 1.4481,0.0494 2.65739,0.20135 3.62792,0.45609 0.97058,0.25475 1.91678,0.63362 2.83864,1.13655 0.92185,0.50294 1.70349,1.13586 2.34485,1.89889 0.6414,0.76301 1.0661,1.50497 1.274,2.22602 0.20798,0.72105 0.38646,2.48139 0.53554,5.28084 0.14909,2.79945 0.0976,4.69689 -0.15423,5.69221 -0.25185,0.99525 -1.71878,4.29741 -4.40082,9.90639 -2.68204,5.60897 -5.01969,11.01577 -7.01286,16.22047 -1.99314,5.2047 -3.223271,8.22442 -3.690301,9.05915 -0.46708,0.8348 -0.63114,1.1711 -0.49222,1.00907"
       style="fill:none;stroke:#000000;stroke-width:3.2886374;stroke-linecap:round;stroke-linejoin:round;stroke-miterlimit:10;stroke-opacity:1;stroke-dasharray:none"
       id="path3046" />
    <path
       inkscape:connector-curvature="0"
       d="m 163.2673,878.08334 c 2.25624,-0.16748 11.93431,-1.8821 29.03423,-5.14398 17.09995,-3.26202 28.94298,-5.3537 35.5291,-6.27495 6.58611,-0.9214 10.67905,-1.43477 12.27886,-1.54014 1.59985,-0.10537 3.18924,-0.12817 4.76822,-0.0683 1.57905,0.0599 1.95263,0.0609 1.12079,0.004"
       style="fill:none;stroke:#000000;stroke-width:3.2886374;stroke-linecap:round;stroke-linejoin:round;stroke-miterlimit:10;stroke-opacity:1;stroke-dasharray:none"
       id="path3048" />
    <path
       inkscape:connector-curvature="0"
       d="m 192.84661,864.4535 c -0.84126,1.04324 -1.07792,1.45392 -0.71,1.23206 0.36802,-0.22194 -0.0136,0.87823 -1.14505,3.30071 -1.13136,2.42233 -2.56336,5.01397 -4.29603,7.77482 -1.73264,2.76083 -2.86744,4.71633 -3.40435,5.86646 -0.53689,1.1501 -1.05335,1.90701 -1.54945,2.2707"
       style="fill:none;stroke:#000000;stroke-width:3.2886374;stroke-linecap:round;stroke-linejoin:round;stroke-miterlimit:10;stroke-opacity:1;stroke-dasharray:none"
       id="path3050" />
    <path
       inkscape:connector-curvature="0"
       d="m 179.016,868.08814 c 0.5048,-0.26932 0.7306,-0.36895 0.67738,-0.299 -0.0531,0.07 0.85671,0.83618 2.72965,2.29858 1.87293,1.46248 3.6834,3.06275 5.43132,4.8008 1.74798,1.73805 3.15694,2.81883 4.22695,3.24234 1.07003,0.42351 2.63756,0.81154 4.7025,1.16401"
       style="fill:none;stroke:#000000;stroke-width:3.2886374;stroke-linecap:round;stroke-linejoin:round;stroke-miterlimit:10;stroke-opacity:1;stroke-dasharray:none"
       id="path3052" />
    <path
       inkscape:connector-curvature="0"
       d="m 233.53078,857.43666 c -0.6393,0.40383 -0.92557,0.56686 -0.85873,0.4892 0.0669,-0.0776 0.0261,-0.11187 -0.12212,-0.1025 -0.14824,0.009 -0.44334,0.23918 -0.88532,0.68961 -0.44197,0.45045 -1.47926,1.77735 -3.11195,3.98073 -1.63261,2.20336 -3.65852,5.26565 -6.07761,9.1867 -2.4191,3.92105 -3.88942,6.42181 -4.41112,7.50236 -0.52163,1.08055 -0.73205,1.6565 -0.63127,1.72784 0.10075,0.0714 0.38552,-0.0297 0.85408,-0.3032"
       style="fill:none;stroke:#000000;stroke-width:3.2886374;stroke-linecap:round;stroke-linejoin:round;stroke-miterlimit:10;stroke-opacity:1;stroke-dasharray:none"
       id="path3054" />
    <path
       inkscape:connector-curvature="0"
       d="m 217.7316,858.54727 c 0.2692,0 0.42064,0.19349 0.45425,0.58053 0.0336,0.38704 0.18955,0.57785 0.46749,0.57259 0.27802,-0.005 0.79567,0.3405 1.55285,1.03751 0.75726,0.69687 2.72206,3.16612 5.89432,7.40776 3.17227,4.24156 6.33884,8.00843 9.49978,11.30066"
       style="fill:none;stroke:#000000;stroke-width:3.2886374;stroke-linecap:round;stroke-linejoin:round;stroke-miterlimit:10;stroke-opacity:1;stroke-dasharray:none"
       id="path3056" />
  </g>
</svg>
