<?xml version="1.0" encoding="UTF-8" standalone="no"?>
<!-- Created with Inkscape (http://www.inkscape.org/) -->

<svg
   xmlns:dc="http://purl.org/dc/elements/1.1/"
   xmlns:cc="http://creativecommons.org/ns#"
   xmlns:rdf="http://www.w3.org/1999/02/22-rdf-syntax-ns#"
   xmlns:svg="http://www.w3.org/2000/svg"
   xmlns="http://www.w3.org/2000/svg"
   xmlns:sodipodi="http://sodipodi.sourceforge.net/DTD/sodipodi-0.dtd"
   xmlns:inkscape="http://www.inkscape.org/namespaces/inkscape"
   width="455.73035"
   height="100.75004"
   id="svg3099"
   version="1.1"
   inkscape:version="0.48.5 r10040"
   sodipodi:docname="draw-propagator-twoloop_reducible.svg">
  <defs
     id="defs3101" />
  <sodipodi:namedview
     id="base"
     pagecolor="#ffffff"
     bordercolor="#666666"
     borderopacity="1.0"
     inkscape:pageopacity="0.0"
     inkscape:pageshadow="2"
     inkscape:zoom="0.35"
     inkscape:cx="244.67596"
     inkscape:cy="518.78252"
     inkscape:document-units="px"
     inkscape:current-layer="layer1"
     showgrid="false"
     inkscape:window-width="657"
     inkscape:window-height="750"
     inkscape:window-x="0"
     inkscape:window-y="27"
     inkscape:window-maximized="0"
     fit-margin-top="0"
     fit-margin-left="0"
     fit-margin-right="0"
     fit-margin-bottom="0" />
  <metadata
     id="metadata3104">
    <rdf:RDF>
      <cc:Work
         rdf:about="">
        <dc:format>image/svg+xml</dc:format>
        <dc:type
           rdf:resource="http://purl.org/dc/dcmitype/StillImage" />
        <dc:title></dc:title>
      </cc:Work>
    </rdf:RDF>
  </metadata>
  <g
     inkscape:label="Layer 1"
     inkscape:groupmode="layer"
     id="layer1"
     transform="translate(-130.32404,-950.39467)">
    <path
       inkscape:connector-curvature="0"
       d="m 131.96855,1049.4947 c 0.80764,-0.6394 1.7616,-0.8452 2.86192,-0.6174 1.10033,0.2277 1.99282,0.3547 2.67744,0.3808 0.68465,0.026 5.29726,-0.2161 13.83789,-0.7265 8.54061,-0.5104 18.87635,-1.4544 31.00717,-2.832 12.13083,-1.3776 23.06628,-2.5146 32.80639,-3.4108 9.7401,-0.8962 19.54895,-2.0177 29.42651,-3.3645 9.87759,-1.3468 15.03383,-2.0768 15.46872,-2.19 0.4349,-0.1132 0.72498,-0.3336 0.87026,-0.661 0.14529,-0.3274 0.13227,-0.8176 -0.039,-1.4704"
       style="fill:none;stroke:#000000;stroke-width:3.2886374;stroke-linecap:round;stroke-linejoin:round;stroke-miterlimit:10;stroke-opacity:1;stroke-dasharray:none"
       id="path3058" />
    <path
       inkscape:connector-curvature="0"
       d="m 200.31387,1043.1341 c -1.21143,0.4375 -1.81715,0.5301 -1.81716,0.2778 1e-5,-0.2525 -0.14199,-0.5942 -0.426,-1.0252 -0.28397,-0.4311 -1.29115,-1.0548 -3.02154,-1.8709 -1.73035,-0.8162 -4.03136,-2.2057 -6.90303,-4.1685 -2.87168,-1.9627 -5.13099,-3.6911 -6.77794,-5.185 -1.64694,-1.494 -3.06729,-2.9759 -4.26104,-4.4458 -1.19375,-1.4698 -2.13466,-2.8992 -2.82274,-4.2879 -0.68807,-1.3888 -1.19946,-3.2874 -1.53413,-5.696 -0.33467,-2.4085 -0.43269,-4.2473 -0.29409,-5.5163 0.13861,-1.269 0.48922,-2.4272 1.05184,-3.4746 0.56261,-1.0474 1.07661,-1.8258 1.542,-2.3352 0.4654,-0.5096 1.0772,-1.0374 1.83545,-1.5836 0.75825,-0.5463 2.42853,-1.4326 5.01083,-2.6591 2.58232,-1.22636 5.10679,-2.16379 7.57344,-2.81221 2.46665,-0.64845 5.12133,-1.15857 7.964,-1.5303 2.84271,-0.37178 6.04254,-0.58312 9.59951,-0.63397 3.55698,-0.0509 6.59928,0.0566 9.12695,0.32284 2.52768,0.26608 4.70622,0.63606 6.53555,1.10993 1.82938,0.47386 3.33419,0.95031 4.5145,1.4294 1.1803,0.47897 2.49825,1.20091 3.95382,2.16581 1.4556,0.9648 2.55751,1.8231 3.30575,2.5749 0.74825,0.7517 1.35957,1.4961 1.83398,2.2332 0.4744,0.7371 0.86834,1.4518 1.18178,2.1441 0.31347,0.6923 0.54532,1.4294 0.69561,2.2114 0.1503,0.782 0.22199,1.5827 0.21509,2.4021 -0.007,0.8195 -0.10338,1.591 -0.2894,2.3146 -0.18603,0.7236 -0.5763,1.6866 -1.1709,2.8889 -0.59456,1.2024 -1.21704,2.2753 -1.86749,3.2188 -0.65045,0.9434 -1.6705,2.0431 -3.06015,3.2991 -1.38964,1.2559 -3.48925,2.6812 -6.29881,4.2759 -2.80954,1.5947 -6.27704,3.1549 -10.40253,4.6806 -4.12547,1.5256 -7.53145,3.0404 -10.21793,4.5443 -2.68648,1.5037 -4.12315,2.2052 -4.31003,2.1045 -0.18685,-0.1007 -0.32509,-0.4549 -0.41471,-1.0625"
       style="fill:none;stroke:#000000;stroke-width:3.2886374;stroke-linecap:round;stroke-linejoin:round;stroke-miterlimit:10;stroke-opacity:1;stroke-dasharray:none"
       id="path3060" />
    <path
       inkscape:connector-curvature="0"
       d="m 201.87864,994.21821 c -1.07683,1.00964 -1.6772,1.27594 -1.80114,0.79899 -0.12388,-0.47695 -0.2672,-0.7748 -0.42981,-0.89363 -0.1626,-0.11887 -0.96604,-0.30018 -2.4103,-0.5439 -1.44425,-0.2438 -2.82897,-0.60421 -4.15414,-1.08127 -1.32518,-0.47708 -2.88255,-1.21841 -4.67215,-2.22405 -1.78959,-1.00566 -3.57818,-2.2393 -5.36576,-3.70083 -1.78758,-1.46152 -3.08244,-2.69947 -3.88458,-3.7138 -0.80212,-1.01432 -1.49429,-2.08393 -2.07647,-3.20881 -0.58219,-1.12484 -0.9992,-2.40161 -1.25104,-3.83026 -0.25184,-1.42871 -0.38861,-2.65453 -0.41034,-3.67748 -0.0217,-1.02306 0.0373,-1.98986 0.17679,-2.90043 0.13959,-0.91064 0.61425,-2.12162 1.42397,-3.63285 0.80975,-1.5113 1.63848,-2.78385 2.48619,-3.8177 0.84771,-1.0339 2.33901,-2.34132 4.47389,-3.92224 2.13489,-1.58089 3.857,-2.6791 5.16632,-3.2946 1.30934,-0.61554 2.96217,-1.16323 4.95847,-1.64308 1.99631,-0.47988 3.91872,-0.75931 5.76727,-0.83823 1.84855,-0.079 3.64128,-0.052 5.37819,0.081 1.73692,0.1329 3.30119,0.39443 4.69282,0.78461 1.39167,0.39005 3.38227,1.18037 5.97183,2.37102 2.58961,1.19057 4.35806,2.09175 5.30535,2.70348 0.94732,0.6118 1.71522,1.19739 2.3037,1.75681 0.58847,0.55943 1.26497,1.40923 2.0295,2.54944 0.76451,1.14021 1.38166,2.24259 1.85136,3.30707 0.46974,1.06447 0.76508,2.16969 0.886,3.3157 0.12088,1.14594 0.10263,2.0903 -0.0549,2.83318 -0.15751,0.7428 -0.65502,1.8068 -1.49249,3.19206 -0.83746,1.38524 -1.62985,2.56173 -2.3772,3.52944 -0.74732,0.96771 -1.62655,1.92566 -2.63766,2.87384 -1.01107,0.94811 -2.3995,2.07721 -4.16522,3.38733 -1.76572,1.31009 -3.237,2.31972 -4.41388,3.02895 -1.17686,0.70919 -2.33149,1.3126 -3.46381,1.81023 -1.13233,0.49759 -2.69358,0.98751 -4.68375,1.46972 -1.99015,0.48218 -3.6078,0.94647 -4.85296,1.39294 -1.24514,0.44648 -1.88127,0.58808 -1.90837,0.42488"
       style="fill:none;stroke:#000000;stroke-width:3.2886374;stroke-linecap:round;stroke-linejoin:round;stroke-miterlimit:10;stroke-opacity:1;stroke-dasharray:none"
       id="path3062" />
    <path
       inkscape:connector-curvature="0"
       d="m 316.41006,1035.7135 c -1.00952,1.0432 -0.85796,1.3439 0.4547,0.9021 1.31268,-0.4419 2.93188,-0.7047 4.85763,-0.7883 1.92577,-0.084 5.63481,-0.5137 11.1271,-1.2901 5.49232,-0.7765 11.94375,-1.5829 19.3543,-2.4194 7.41058,-0.8365 18.25462,-1.9034 32.53212,-3.2005 14.27758,-1.2972 23.69956,-2.2202 28.2661,-2.7691 4.56654,-0.5489 6.98163,-0.8781 7.24521,-0.9875 0.2636,-0.1095 0.17724,-0.2265 -0.25916,-0.3511"
       style="fill:none;stroke:#000000;stroke-width:3.2886374;stroke-linecap:round;stroke-linejoin:round;stroke-miterlimit:10;stroke-opacity:1;stroke-dasharray:none"
       id="path3064" />
    <path
       inkscape:connector-curvature="0"
       d="m 361.08185,1031.2712 c 0.43746,-1.0433 -0.23079,-1.5874 -2.00478,-1.6323 -1.77395,-0.045 -2.9928,-0.1601 -3.65652,-0.3456 -0.66371,-0.1856 -2.8377,-1.1622 -6.52191,-2.9298 -3.68422,-1.7676 -6.34245,-3.2044 -7.97475,-4.3102 -1.63232,-1.1059 -3.22568,-2.3677 -4.78013,-3.7854 -1.55444,-1.4178 -2.85507,-2.7648 -3.90194,-4.041 -1.04687,-1.2761 -1.87996,-2.5255 -2.4993,-3.7482 -0.61931,-1.2226 -1.01765,-2.4869 -1.19501,-3.7929 -0.17732,-1.3059 -0.26785,-2.7993 -0.27156,-4.4803 -0.004,-1.6811 0.12112,-3.06244 0.37466,-4.14409 0.25346,-1.0817 0.72576,-2.31519 1.41693,-3.70049 0.69118,-1.38535 1.54596,-2.70626 2.5643,-3.96275 1.01837,-1.25648 2.52067,-2.64236 4.50692,-4.15767 1.9863,-1.51531 3.90479,-2.7454 5.75546,-3.69038 1.85073,-0.94505 3.74884,-1.75125 5.6944,-2.4186 1.94555,-0.66748 3.96108,-1.12296 6.0466,-1.36642 2.08548,-0.24345 3.88624,-0.2798 5.40225,-0.109 1.51607,0.17081 3.3628,0.5659 5.5402,1.18519 2.17745,0.61927 3.9218,1.28161 5.2331,1.98695 1.3113,0.70533 2.40429,1.42937 3.27908,2.17213 0.87479,0.74268 1.75487,1.70719 2.64022,2.89349 0.8854,1.18621 1.76728,2.64133 2.64577,4.36543 0.87848,1.72408 1.50493,3.37683 1.87938,4.95822 0.37449,1.58138 0.61513,3.09261 0.72194,4.53369 0.10688,1.441 0.12213,2.7006 0.046,3.7788 -0.0761,1.0783 -0.21629,2.0515 -0.4203,2.9199 -0.20397,0.8683 -0.45441,1.6334 -0.75127,2.2954 -0.29682,0.6619 -0.93453,1.712 -1.91307,3.1502 -0.97855,1.4383 -2.35878,3.1559 -4.1407,5.1528 -1.78185,1.9969 -3.37341,3.9721 -4.77463,5.9254 -1.40118,1.9534 -3.4412,4.0428 -6.12009,6.2682 -2.67886,2.2254 -4.25561,3.5084 -4.7302,3.8491 -0.47455,0.3406 -0.79728,0.4776 -0.96818,0.4109"
       style="fill:none;stroke:#000000;stroke-width:3.2886374;stroke-linecap:round;stroke-linejoin:round;stroke-miterlimit:10;stroke-opacity:1;stroke-dasharray:none"
       id="path3066" />
    <path
       inkscape:connector-curvature="0"
       d="m 364.16094,972.56199 c 0.1346,-0.43752 0.10737,-0.6451 -0.0817,-0.62279 -0.18908,0.0222 -0.59015,0.21732 -1.20327,0.58532 -0.61308,0.36793 -1.73292,1.26752 -3.3595,2.69868 -1.62656,1.43116 -2.99211,2.85744 -4.09667,4.27886 -1.10449,1.4214 -3.38988,4.79558 -6.85614,10.12245"
       style="fill:none;stroke:#000000;stroke-width:3.2886374;stroke-linecap:round;stroke-linejoin:round;stroke-miterlimit:10;stroke-opacity:1;stroke-dasharray:none"
       id="path3068" />
    <path
       inkscape:connector-curvature="0"
       d="m 350.43131,969.73515 c 0.1346,1.88457 0.85013,3.88744 2.14656,6.00867 1.29649,2.12117 2.63388,4.11237 4.01219,5.97355 1.37833,1.86119 2.16158,3.1102 2.34978,3.7471 0.1882,0.6369 0.24601,1.2159 0.17343,1.73695"
       style="fill:none;stroke:#000000;stroke-width:3.2886374;stroke-linecap:round;stroke-linejoin:round;stroke-miterlimit:10;stroke-opacity:1;stroke-dasharray:none"
       id="path3070" />
    <path
       inkscape:connector-curvature="0"
       d="m 462.84271,1019.9634 c 1.58161,-0.774 2.39605,-0.9662 2.44328,-0.5765 0.0472,0.3897 0.21033,0.6219 0.4892,0.6965 0.27885,0.075 4.49775,-0.2673 12.65666,-1.0258 8.15895,-0.7586 20.06054,-2.1374 35.70474,-4.1364 15.64426,-1.999 27.99365,-3.3062 37.04822,-3.9216 9.0546,-0.6154 16.28486,-0.9933 21.69086,-1.1336 5.406,-0.1403 8.85308,-0.278 10.34119,-0.4131 1.48811,-0.1352 1.61006,-0.2999 0.3659,-0.4943"
       style="fill:none;stroke:#000000;stroke-width:3.2886374;stroke-linecap:round;stroke-linejoin:round;stroke-miterlimit:10;stroke-opacity:1;stroke-dasharray:none"
       id="path3072" />
    <path
       inkscape:connector-curvature="0"
       d="m 488.43434,1016.1774 c 0.74031,-1.4135 0.79093,-2.3902 0.15186,-2.9301 -0.63908,-0.5399 -1.00426,-0.9937 -1.09551,-1.3613 -0.0912,-0.3676 -0.0309,-1.0226 0.18082,-1.9648 0.21183,-0.9422 0.4808,-1.8174 0.80689,-2.6254 0.32611,-0.808 1.07669,-2.2088 2.25177,-4.2024 1.17512,-1.9936 2.95234,-4.51968 5.33162,-7.57819 2.37933,-3.05859 4.30628,-5.18371 5.78093,-6.37546 1.47465,-1.19175 3.2341,-2.35379 5.27837,-3.48599 2.0443,-1.13227 3.95728,-1.95552 5.73906,-2.46979 1.78176,-0.51433 3.53042,-0.93852 5.24596,-1.27258 1.71555,-0.33413 3.8324,-0.59025 6.35053,-0.76835 2.51811,-0.17808 4.71743,-0.19677 6.59786,-0.0561 1.88049,0.1406 3.61701,0.47373 5.20961,0.99945 1.59268,0.52562 3.31578,1.2994 5.16926,2.32127 1.85357,1.02193 3.49343,2.13639 4.91967,3.34348 1.42627,1.20707 2.53753,2.32685 3.3337,3.3593 0.79616,1.03236 1.7297,2.66936 2.80052,4.91103 1.0709,2.24163 1.85688,4.34443 2.3579,6.30833 0.5011,1.9639 0.81429,3.9643 0.93956,6.0012 0.12535,2.0369 0.0593,3.99 -0.19836,5.8593 -0.2575,1.8693 -0.99472,4.6701 -2.21172,8.4025 -1.21693,3.7324 -2.267,6.4899 -3.15018,8.2726 -0.88319,1.7827 -1.72321,3.1662 -2.52007,4.1505 -0.79685,0.9842 -1.75698,1.9253 -2.8804,2.823 -1.12343,0.8978 -2.33109,1.5942 -3.623,2.0893 -1.29189,0.4951 -3.12768,0.9805 -5.50729,1.4562 -2.3796,0.4758 -5.43701,0.7351 -9.17233,0.7777 -3.73531,0.043 -6.25511,-0.02 -7.55946,-0.1869 -1.30432,-0.1673 -2.89227,-0.4942 -4.76384,-0.9807 -1.87152,-0.4865 -3.79378,-1.195 -5.76675,-2.1256 -1.97296,-0.9306 -3.7315,-1.9348 -5.27565,-3.0126 -1.54415,-1.0778 -2.56813,-1.8524 -3.07193,-2.3237 -0.50382,-0.4714 -1.83412,-2.1568 -3.99087,-5.0564 -2.15667,-2.8995 -3.84662,-5.3708 -5.06977,-7.4139 -1.22314,-2.0431 -1.87378,-3.5201 -1.95186,-4.4311 -0.078,-0.9109 -0.0379,-1.7689 0.12025,-2.574"
       style="fill:none;stroke:#000000;stroke-width:3.2886374;stroke-linecap:round;stroke-linejoin:round;stroke-miterlimit:10;stroke-opacity:1;stroke-dasharray:none"
       id="path3074" />
  </g>
</svg>
