<?xml version="1.0" encoding="UTF-8" standalone="no"?>
<!-- Created with Inkscape (http://www.inkscape.org/) -->

<svg
   xmlns:dc="http://purl.org/dc/elements/1.1/"
   xmlns:cc="http://creativecommons.org/ns#"
   xmlns:rdf="http://www.w3.org/1999/02/22-rdf-syntax-ns#"
   xmlns:svg="http://www.w3.org/2000/svg"
   xmlns="http://www.w3.org/2000/svg"
   xmlns:sodipodi="http://sodipodi.sourceforge.net/DTD/sodipodi-0.dtd"
   xmlns:inkscape="http://www.inkscape.org/namespaces/inkscape"
   width="174.2168"
   height="7.4739513"
   id="svg3099"
   version="1.1"
   inkscape:version="0.48.5 r10040"
   sodipodi:docname="draw-propagator-tree.svg">
  <defs
     id="defs3101" />
  <sodipodi:namedview
     id="base"
     pagecolor="#ffffff"
     bordercolor="#666666"
     borderopacity="1.0"
     inkscape:pageopacity="0.0"
     inkscape:pageshadow="2"
     inkscape:zoom="0.35"
     inkscape:cx="159.25527"
     inkscape:cy="143.73192"
     inkscape:document-units="px"
     inkscape:current-layer="layer1"
     showgrid="false"
     inkscape:window-width="657"
     inkscape:window-height="750"
     inkscape:window-x="0"
     inkscape:window-y="27"
     inkscape:window-maximized="0"
     fit-margin-top="0"
     fit-margin-left="0"
     fit-margin-right="0"
     fit-margin-bottom="0" />
  <metadata
     id="metadata3104">
    <rdf:RDF>
      <cc:Work
         rdf:about="">
        <dc:format>image/svg+xml</dc:format>
        <dc:type
           rdf:resource="http://purl.org/dc/dcmitype/StillImage" />
        <dc:title></dc:title>
      </cc:Work>
    </rdf:RDF>
  </metadata>
  <g
     inkscape:label="Layer 1"
     inkscape:groupmode="layer"
     id="layer1"
     transform="translate(-215.74473,-668.62016)">
    <path
       inkscape:connector-curvature="0"
       d="m 217.83978,672.23811 c -0.77396,0.80773 -0.56236,1.02517 0.63475,0.65239 1.19711,-0.3727 3.75276,-0.28099 7.66691,0.27519 3.91416,0.55619 9.32095,0.91156 16.22034,1.06614 6.89944,0.15457 13.01569,0.22887 18.34882,0.22285 5.33314,-0.006 9.32233,-0.0725 11.96755,-0.1992 2.64523,-0.12673 6.00388,-0.38659 10.07592,-0.77965 4.07205,-0.39307 9.428,-0.72655 16.06785,-1.00044 6.63986,-0.27405 11.03152,-0.42396 13.17502,-0.44975 2.14353,-0.0259 7.52985,0.11287 16.159,0.41617 8.62917,0.30328 16.25057,0.43694 22.86427,0.40085 6.61373,-0.036 12.54807,-0.18317 17.803,-0.44158 5.25502,-0.25842 10.12565,-0.58938 14.61189,-0.99304 4.48628,-0.40368 5.88894,-0.78331 4.20803,-1.13869"
       style="fill:none;stroke:#000000;stroke-width:3.2886374;stroke-linecap:round;stroke-linejoin:round;stroke-miterlimit:10;stroke-opacity:1;stroke-dasharray:none"
       id="path3014" />
  </g>
</svg>
