<?xml version="1.0" encoding="UTF-8" standalone="no"?>
<!-- Created with Inkscape (http://www.inkscape.org/) -->

<svg
   xmlns:dc="http://purl.org/dc/elements/1.1/"
   xmlns:cc="http://creativecommons.org/ns#"
   xmlns:rdf="http://www.w3.org/1999/02/22-rdf-syntax-ns#"
   xmlns:svg="http://www.w3.org/2000/svg"
   xmlns="http://www.w3.org/2000/svg"
   xmlns:sodipodi="http://sodipodi.sourceforge.net/DTD/sodipodi-0.dtd"
   xmlns:inkscape="http://www.inkscape.org/namespaces/inkscape"
   width="433.66367"
   height="83.757698"
   id="svg3099"
   version="1.1"
   inkscape:version="0.48.5 r10040"
   sodipodi:docname="draw-propagator-tree.svg">
  <defs
     id="defs3101" />
  <sodipodi:namedview
     id="base"
     pagecolor="#ffffff"
     bordercolor="#666666"
     borderopacity="1.0"
     inkscape:pageopacity="0.0"
     inkscape:pageshadow="2"
     inkscape:zoom="0.35"
     inkscape:cx="36.147326"
     inkscape:cy="82.74767"
     inkscape:document-units="px"
     inkscape:current-layer="layer1"
     showgrid="false"
     inkscape:window-width="657"
     inkscape:window-height="750"
     inkscape:window-x="0"
     inkscape:window-y="27"
     inkscape:window-maximized="0"
     fit-margin-top="0"
     fit-margin-left="0"
     fit-margin-right="0"
     fit-margin-bottom="0" />
  <metadata
     id="metadata3104">
    <rdf:RDF>
      <cc:Work
         rdf:about="">
        <dc:format>image/svg+xml</dc:format>
        <dc:type
           rdf:resource="http://purl.org/dc/dcmitype/StillImage" />
        <dc:title></dc:title>
      </cc:Work>
    </rdf:RDF>
  </metadata>
  <g
     inkscape:label="Layer 1"
     inkscape:groupmode="layer"
     id="layer1"
     transform="translate(-338.85267,-531.35216)">
    <path
       inkscape:connector-curvature="0"
       d="m 340.57217,613.39244 c 2.27519,0.12125 4.23746,0.10588 5.88682,-0.0461 1.64938,-0.15197 4.95326,-0.69275 9.91161,-1.62238 4.95836,-0.92965 9.84661,-1.74302 14.66475,-2.44012 4.81816,-0.6971 10.94423,-1.46072 18.37825,-2.29087 7.43403,-0.83016 15.67138,-1.67 24.71202,-2.51931 9.04065,-0.8493 18.7426,-1.62864 29.10581,-2.33803 10.36323,-0.70937 20.12631,-1.20132 29.28925,-1.47575 9.16296,-0.27451 16.65404,-0.58991 22.47323,-0.94612 5.8192,-0.35637 10.08931,-0.87074 12.81033,-1.5432 2.72103,-0.67245 4.24418,-1.09192 4.56947,-1.25824 0.32527,-0.1664 0.46683,-0.68024 0.42466,-1.54136"
       style="fill:none;stroke:#000000;stroke-width:3.2886374;stroke-linecap:round;stroke-linejoin:round;stroke-miterlimit:10;stroke-opacity:1;stroke-dasharray:none"
       id="path3016" />
    <path
       inkscape:connector-curvature="0"
       d="m 423.35381,603.64963 c -1.17779,0.87503 -1.71935,1.12106 -1.62471,0.73815 0.0946,-0.38292 0.0984,-0.6517 0.0113,-0.80627 -0.0872,-0.15458 -1.1196,-0.73327 -3.09714,-1.73599 -1.97753,-1.00274 -3.46743,-1.84838 -4.4697,-2.53678 -1.00228,-0.68847 -2.58411,-2.07908 -4.74553,-4.17176 -2.1614,-2.09281 -4.10578,-4.29801 -5.83316,-6.6156 -1.72737,-2.31772 -3.07022,-4.35516 -4.02859,-6.11229 -0.95835,-1.7572 -2.32945,-4.74342 -4.11327,-8.95881 -1.78383,-4.21531 -2.86764,-7.25129 -3.25146,-9.10782 -0.38378,-1.85653 -0.59132,-3.72498 -0.62259,-5.60524 -0.0312,-1.88034 0.14997,-3.50708 0.5437,-4.88045 0.39376,-1.37336 0.85342,-2.53959 1.37905,-3.49845 0.52565,-0.95894 1.23925,-2.05888 2.1408,-3.29995 0.90154,-1.24099 2.03317,-2.53486 3.39486,-3.88145 1.3617,-1.34651 2.93926,-2.67518 4.73269,-3.9859 1.79344,-1.31081 3.62149,-2.35093 5.48414,-3.12043 1.86268,-0.76965 3.97068,-1.4061 6.32405,-1.90956 2.35337,-0.50361 4.65247,-0.84084 6.8973,-1.01172 2.24482,-0.1709 4.32767,-0.19433 6.24852,-0.0702 1.92085,0.124 3.8662,0.44822 5.83603,0.97237 1.96983,0.52406 3.84103,1.10885 5.61359,1.7543 1.77258,0.64536 3.14743,1.28601 4.12463,1.92184 0.97719,0.63584 2.01464,1.44089 3.11234,2.41531 1.09768,0.97435 2.07021,2.05758 2.91761,3.24959 0.84739,1.19202 1.56621,2.43797 2.15642,3.7378 0.59025,1.2999 1.00577,2.81196 1.24657,4.53629 0.24081,1.72423 0.32993,3.10058 0.26737,4.12902 -0.0626,1.02829 -0.36009,2.35046 -0.89256,3.96645 -0.53248,1.6159 -1.29198,3.47595 -2.2785,5.58014 -0.98651,2.10411 -2.40948,4.6904 -4.26893,7.75894 -1.85942,3.06838 -3.27771,5.63308 -4.25486,7.69401 -0.97714,2.06094 -1.75386,3.55706 -2.33021,4.4883 -0.57634,0.93125 -2.27264,2.91931 -5.0889,5.96444 -2.81625,3.04511 -5.1275,5.64857 -6.93372,7.81036 -1.8062,2.16179 -3.1994,3.67714 -4.17962,4.5459 -0.98018,0.86867 -1.79817,1.4476 -2.45395,1.73682 -0.65575,0.28915 -0.73402,0.0113 -0.23483,-0.83305"
       style="fill:none;stroke:#000000;stroke-width:3.2886374;stroke-linecap:round;stroke-linejoin:round;stroke-miterlimit:10;stroke-opacity:1;stroke-dasharray:none"
       id="path3018" />
    <path
       inkscape:connector-curvature="0"
       d="m 606.53342,595.06794 c 0.0673,0.5384 0.22439,0.77049 0.47126,0.69625 0.24689,-0.0743 3.04981,-0.0829 8.40879,-0.0257 5.35896,0.0571 11.65664,-0.12808 18.89309,-0.55572 7.23636,-0.42763 15.1326,-0.79711 23.68861,-1.10863 8.55606,-0.31135 20.81017,-0.55786 36.76232,-0.73943 15.95214,-0.18158 27.63794,-0.41245 35.05725,-0.6926 7.4194,-0.28008 13.87379,-0.66574 19.36329,-1.15692 5.4895,-0.49126 10.60613,-0.82771 15.34978,-1.00945 4.74368,-0.18173 6.84601,-0.41778 6.30698,-0.70816"
       style="fill:none;stroke:#000000;stroke-width:3.2886374;stroke-linecap:round;stroke-linejoin:round;stroke-miterlimit:10;stroke-opacity:1;stroke-dasharray:none"
       id="path3020" />
    <path
       inkscape:connector-curvature="0"
       d="m 700.36944,587.14253 c 0.63934,-0.57221 -1.14426,0.54298 -5.35091,3.34556 -4.20659,2.8025 -8.46425,5.91057 -12.77302,9.32427 -4.3087,3.41362 -7.03354,5.28167 -8.17444,5.60417"
       style="fill:none;stroke:#000000;stroke-width:3.2886374;stroke-linecap:round;stroke-linejoin:round;stroke-miterlimit:10;stroke-opacity:1;stroke-dasharray:none"
       id="path3022" />
    <path
       inkscape:connector-curvature="0"
       d="m 682.85403,583.35637 c 1.00956,0.9423 1.41068,1.51016 1.20331,1.70364 -0.2073,0.1934 -0.24822,1.01608 -0.12275,2.46811 0.12539,1.45202 0.82223,3.68591 2.09045,6.70166 1.26828,3.01566 2.28528,5.10055 3.051,6.25473 0.76577,1.15402 2.66262,3.18503 5.69054,6.09306"
       style="fill:none;stroke:#000000;stroke-width:3.2886374;stroke-linecap:round;stroke-linejoin:round;stroke-miterlimit:10;stroke-opacity:1;stroke-dasharray:none"
       id="path3024" />
  </g>
</svg>
